# Mega Man X Helmet Visor Frame
o HelmetVisorFrame
v -0.180000 -0.090000 -0.130000
v -0.182657 -0.061565 -0.132632
v -0.184385 -0.035857 -0.135405
v -0.185097 -0.012717 -0.138265
v -0.184705 0.008013 -0.141157
v -0.183120 0.026491 -0.144028
v -0.180254 0.042877 -0.146823
v -0.176019 0.057328 -0.149487
v -0.170358 0.069998 -0.151972
v -0.163447 0.081002 -0.154264
v -0.155564 0.090438 -0.156364
v -0.146989 0.098405 -0.158275
v -0.138000 0.105000 -0.160000
v -0.128806 0.110298 -0.161533
v -0.119328 0.114277 -0.162844
v -0.109415 0.116889 -0.163893
v -0.098919 0.118089 -0.164642
v -0.087688 0.117829 -0.165053
v -0.075684 0.116086 -0.165110
v -0.063109 0.112882 -0.164843
v -0.050203 0.108248 -0.164292
v -0.037201 0.102212 -0.163494
v -0.024342 0.094806 -0.162487
v -0.011862 0.086059 -0.161309
v 0.000000 0.076000 -0.160000
v 0.011862 0.086059 -0.161309
v 0.024342 0.094806 -0.162487
v 0.037201 0.102212 -0.163494
v 0.050203 0.108248 -0.164292
v 0.063109 0.112882 -0.164843
v 0.075684 0.116086 -0.165110
v 0.087688 0.117829 -0.165053
v 0.098919 0.118089 -0.164642
v 0.109415 0.116889 -0.163893
v 0.119328 0.114277 -0.162844
v 0.128806 0.110298 -0.161533
v 0.138000 0.105000 -0.160000
v 0.146989 0.098405 -0.158275
v 0.155564 0.090438 -0.156364
v 0.163447 0.081002 -0.154264
v 0.170358 0.069998 -0.151972
v 0.176019 0.057328 -0.149487
v 0.180254 0.042877 -0.146823
v 0.183120 0.026491 -0.144028
v 0.184705 0.008013 -0.141157
v 0.185097 -0.012717 -0.138265
v 0.184385 -0.035857 -0.135405
v 0.182657 -0.061565 -0.132632
v 0.180000 -0.090000 -0.130000
v -0.195000 -0.090000 -0.136000
v -0.197657 -0.061565 -0.138632
v -0.199385 -0.035857 -0.141405
v -0.200097 -0.012717 -0.144265
v -0.199696 0.008533 -0.147157
v -0.198020 0.028216 -0.150028
v -0.194989 0.045681 -0.152823
v -0.190534 0.061110 -0.155487
v -0.184608 0.074682 -0.157972
v -0.177391 0.086530 -0.160264
v -0.169165 0.096763 -0.162364
v -0.160212 0.105487 -0.164275
v -0.150813 0.112799 -0.166000
v -0.141181 0.118775 -0.167533
v -0.131235 0.123399 -0.168844
v -0.120818 0.126634 -0.169893
v -0.109767 0.128449 -0.170642
v -0.097905 0.128812 -0.171053
v -0.085160 0.127714 -0.171110
v -0.071702 0.125177 -0.170843
v -0.057726 0.121225 -0.170292
v -0.043412 0.115866 -0.169494
v -0.028925 0.109089 -0.168487
v -0.014409 0.100841 -0.167309
v 0.000000 0.091000 -0.166000
v 0.014409 0.100841 -0.167309
v 0.028925 0.109089 -0.168487
v 0.043412 0.115866 -0.169494
v 0.057726 0.121225 -0.170292
v 0.071702 0.125177 -0.170843
v 0.085160 0.127714 -0.171110
v 0.097905 0.128812 -0.171053
v 0.109767 0.128449 -0.170642
v 0.120818 0.126634 -0.169893
v 0.131235 0.123399 -0.168844
v 0.141181 0.118775 -0.167533
v 0.150813 0.112799 -0.166000
v 0.160212 0.105487 -0.164275
v 0.169165 0.096763 -0.162364
v 0.177391 0.086530 -0.160264
v 0.184608 0.074682 -0.157972
v 0.190534 0.061110 -0.155487
v 0.194989 0.045681 -0.152823
v 0.198020 0.028216 -0.150028
v 0.199696 0.008533 -0.147157
v 0.200097 -0.012717 -0.144265
v 0.199385 -0.035857 -0.141405
v 0.197657 -0.061565 -0.138632
v 0.195000 -0.090000 -0.136000
v -0.225000 -0.090000 -0.110000
v -0.227657 -0.061565 -0.112632
v -0.229385 -0.035857 -0.115405
v -0.230097 -0.012717 -0.118265
v -0.229678 0.009574 -0.121157
v -0.227821 0.031665 -0.124028
v -0.224461 0.051289 -0.126823
v -0.219565 0.068674 -0.129487
v -0.213108 0.084050 -0.131972
v -0.205280 0.097587 -0.134264
v -0.196367 0.109415 -0.136364
v -0.186658 0.119650 -0.138275
v -0.176439 0.128398 -0.140000
v -0.165930 0.135730 -0.141533
v -0.155049 0.141644 -0.142844
v -0.143624 0.146125 -0.143893
v -0.131462 0.149168 -0.144642
v -0.118338 0.150777 -0.145053
v -0.104112 0.150969 -0.145110
v -0.088886 0.149768 -0.144843
v -0.072772 0.147179 -0.144292
v -0.055836 0.143173 -0.143494
v -0.038093 0.137653 -0.142487
v -0.019503 0.130405 -0.141309
v 0.000000 0.121000 -0.140000
v 0.019503 0.130405 -0.141309
v 0.038093 0.137653 -0.142487
v 0.055836 0.143173 -0.143494
v 0.072772 0.147179 -0.144292
v 0.088886 0.149768 -0.144843
v 0.104112 0.150969 -0.145110
v 0.118338 0.150777 -0.145053
v 0.131462 0.149168 -0.144642
v 0.143624 0.146125 -0.143893
v 0.155049 0.141644 -0.142844
v 0.165930 0.135730 -0.141533
v 0.176439 0.128398 -0.140000
v 0.186658 0.119650 -0.138275
v 0.196367 0.109415 -0.136364
v 0.205280 0.097587 -0.134264
v 0.213108 0.084050 -0.131972
v 0.219565 0.068674 -0.129487
v 0.224461 0.051289 -0.126823
v 0.227821 0.031665 -0.124028
v 0.229678 0.009574 -0.121157
v 0.230097 -0.012717 -0.118265
v 0.229385 -0.035857 -0.115405
v 0.227657 -0.061565 -0.112632
v 0.225000 -0.090000 -0.110000
v -0.245000 -0.090000 -0.030000
v -0.247657 -0.061565 -0.032632
v -0.249385 -0.035857 -0.035405
v -0.250097 -0.012717 -0.038265
v -0.249666 0.010267 -0.041157
v -0.247689 0.033964 -0.044028
v -0.244108 0.055028 -0.046823
v -0.238919 0.073717 -0.049487
v -0.232108 0.090295 -0.051972
v -0.223872 0.104958 -0.054264
v -0.214502 0.117849 -0.056364
v -0.204288 0.129093 -0.058275
v -0.193523 0.138797 -0.060000
v -0.182430 0.147033 -0.061533
v -0.170925 0.153807 -0.062844
v -0.158828 0.159119 -0.063893
v -0.145926 0.162982 -0.064642
v -0.131960 0.165421 -0.065053
v -0.116747 0.166473 -0.065110
v -0.100343 0.166161 -0.064843
v -0.082802 0.164482 -0.064292
v -0.064118 0.161377 -0.063494
v -0.044205 0.156697 -0.062487
v -0.022899 0.150115 -0.061309
v 0.000000 0.141000 -0.060000
v 0.022899 0.150115 -0.061309
v 0.044205 0.156697 -0.062487
v 0.064118 0.161377 -0.063494
v 0.082802 0.164482 -0.064292
v 0.100343 0.166161 -0.064843
v 0.116747 0.166473 -0.065110
v 0.131960 0.165421 -0.065053
v 0.145926 0.162982 -0.064642
v 0.158828 0.159119 -0.063893
v 0.170925 0.153807 -0.062844
v 0.182430 0.147033 -0.061533
v 0.193523 0.138797 -0.060000
v 0.204288 0.129093 -0.058275
v 0.214502 0.117849 -0.056364
v 0.223872 0.104958 -0.054264
v 0.232108 0.090295 -0.051972
v 0.238919 0.073717 -0.049487
v 0.244108 0.055028 -0.046823
v 0.247689 0.033964 -0.044028
v 0.249666 0.010267 -0.041157
v 0.250097 -0.012717 -0.038265
v 0.249385 -0.035857 -0.035405
v 0.247657 -0.061565 -0.032632
v 0.245000 -0.090000 -0.030000
v -0.235000 -0.090000 0.030000
v -0.237657 -0.061565 0.027368
v -0.239385 -0.035857 0.024595
v -0.240097 -0.012717 0.021735
v -0.239672 0.009921 0.018843
v -0.237755 0.032815 0.015972
v -0.234284 0.053159 0.013177
v -0.229242 0.071195 0.010513
v -0.222608 0.087173 0.008028
v -0.214576 0.101272 0.005736
v -0.205435 0.113632 0.003636
v -0.195473 0.124372 0.001725
v -0.184981 0.133597 0.000000
v -0.174180 0.141382 -0.001533
v -0.162987 0.147726 -0.002844
v -0.151226 0.152622 -0.003893
v -0.138694 0.156075 -0.004642
v -0.125149 0.158099 -0.005053
v -0.110429 0.158721 -0.005110
v -0.094615 0.157964 -0.004843
v -0.077787 0.155830 -0.004292
v -0.059977 0.152275 -0.003494
v -0.041149 0.147175 -0.002487
v -0.021201 0.140260 -0.001309
v 0.000000 0.131000 0.000000
v 0.021201 0.140260 -0.001309
v 0.041149 0.147175 -0.002487
v 0.059977 0.152275 -0.003494
v 0.077787 0.155830 -0.004292
v 0.094615 0.157964 -0.004843
v 0.110429 0.158721 -0.005110
v 0.125149 0.158099 -0.005053
v 0.138694 0.156075 -0.004642
v 0.151226 0.152622 -0.003893
v 0.162987 0.147726 -0.002844
v 0.174180 0.141382 -0.001533
v 0.184981 0.133597 0.000000
v 0.195473 0.124372 0.001725
v 0.205435 0.113632 0.003636
v 0.214576 0.101272 0.005736
v 0.222608 0.087173 0.008028
v 0.229242 0.071195 0.010513
v 0.234284 0.053159 0.013177
v 0.237755 0.032815 0.015972
v 0.239672 0.009921 0.018843
v 0.240097 -0.012717 0.021735
v 0.239385 -0.035857 0.024595
v 0.237657 -0.061565 0.027368
v 0.235000 -0.090000 0.030000
f 1 2 51
f 1 51 50
f 1 51 2
f 1 50 51
f 2 3 52
f 2 52 51
f 2 52 3
f 2 51 52
f 3 4 53
f 3 53 52
f 3 53 4
f 3 52 53
f 4 5 54
f 4 54 53
f 4 54 5
f 4 53 54
f 5 6 55
f 5 55 54
f 5 55 6
f 5 54 55
f 6 7 56
f 6 56 55
f 6 56 7
f 6 55 56
f 7 8 57
f 7 57 56
f 7 57 8
f 7 56 57
f 8 9 58
f 8 58 57
f 8 58 9
f 8 57 58
f 9 10 59
f 9 59 58
f 9 59 10
f 9 58 59
f 10 11 60
f 10 60 59
f 10 60 11
f 10 59 60
f 11 12 61
f 11 61 60
f 11 61 12
f 11 60 61
f 12 13 62
f 12 62 61
f 12 62 13
f 12 61 62
f 13 14 63
f 13 63 62
f 13 63 14
f 13 62 63
f 14 15 64
f 14 64 63
f 14 64 15
f 14 63 64
f 15 16 65
f 15 65 64
f 15 65 16
f 15 64 65
f 16 17 66
f 16 66 65
f 16 66 17
f 16 65 66
f 17 18 67
f 17 67 66
f 17 67 18
f 17 66 67
f 18 19 68
f 18 68 67
f 18 68 19
f 18 67 68
f 19 20 69
f 19 69 68
f 19 69 20
f 19 68 69
f 20 21 70
f 20 70 69
f 20 70 21
f 20 69 70
f 21 22 71
f 21 71 70
f 21 71 22
f 21 70 71
f 22 23 72
f 22 72 71
f 22 72 23
f 22 71 72
f 23 24 73
f 23 73 72
f 23 73 24
f 23 72 73
f 24 25 74
f 24 74 73
f 24 74 25
f 24 73 74
f 25 26 75
f 25 75 74
f 25 75 26
f 25 74 75
f 26 27 76
f 26 76 75
f 26 76 27
f 26 75 76
f 27 28 77
f 27 77 76
f 27 77 28
f 27 76 77
f 28 29 78
f 28 78 77
f 28 78 29
f 28 77 78
f 29 30 79
f 29 79 78
f 29 79 30
f 29 78 79
f 30 31 80
f 30 80 79
f 30 80 31
f 30 79 80
f 31 32 81
f 31 81 80
f 31 81 32
f 31 80 81
f 32 33 82
f 32 82 81
f 32 82 33
f 32 81 82
f 33 34 83
f 33 83 82
f 33 83 34
f 33 82 83
f 34 35 84
f 34 84 83
f 34 84 35
f 34 83 84
f 35 36 85
f 35 85 84
f 35 85 36
f 35 84 85
f 36 37 86
f 36 86 85
f 36 86 37
f 36 85 86
f 37 38 87
f 37 87 86
f 37 87 38
f 37 86 87
f 38 39 88
f 38 88 87
f 38 88 39
f 38 87 88
f 39 40 89
f 39 89 88
f 39 89 40
f 39 88 89
f 40 41 90
f 40 90 89
f 40 90 41
f 40 89 90
f 41 42 91
f 41 91 90
f 41 91 42
f 41 90 91
f 42 43 92
f 42 92 91
f 42 92 43
f 42 91 92
f 43 44 93
f 43 93 92
f 43 93 44
f 43 92 93
f 44 45 94
f 44 94 93
f 44 94 45
f 44 93 94
f 45 46 95
f 45 95 94
f 45 95 46
f 45 94 95
f 46 47 96
f 46 96 95
f 46 96 47
f 46 95 96
f 47 48 97
f 47 97 96
f 47 97 48
f 47 96 97
f 48 49 98
f 48 98 97
f 48 98 49
f 48 97 98
f 50 51 100
f 50 100 99
f 50 100 51
f 50 99 100
f 51 52 101
f 51 101 100
f 51 101 52
f 51 100 101
f 52 53 102
f 52 102 101
f 52 102 53
f 52 101 102
f 53 54 103
f 53 103 102
f 53 103 54
f 53 102 103
f 54 55 104
f 54 104 103
f 54 104 55
f 54 103 104
f 55 56 105
f 55 105 104
f 55 105 56
f 55 104 105
f 56 57 106
f 56 106 105
f 56 106 57
f 56 105 106
f 57 58 107
f 57 107 106
f 57 107 58
f 57 106 107
f 58 59 108
f 58 108 107
f 58 108 59
f 58 107 108
f 59 60 109
f 59 109 108
f 59 109 60
f 59 108 109
f 60 61 110
f 60 110 109
f 60 110 61
f 60 109 110
f 61 62 111
f 61 111 110
f 61 111 62
f 61 110 111
f 62 63 112
f 62 112 111
f 62 112 63
f 62 111 112
f 63 64 113
f 63 113 112
f 63 113 64
f 63 112 113
f 64 65 114
f 64 114 113
f 64 114 65
f 64 113 114
f 65 66 115
f 65 115 114
f 65 115 66
f 65 114 115
f 66 67 116
f 66 116 115
f 66 116 67
f 66 115 116
f 67 68 117
f 67 117 116
f 67 117 68
f 67 116 117
f 68 69 118
f 68 118 117
f 68 118 69
f 68 117 118
f 69 70 119
f 69 119 118
f 69 119 70
f 69 118 119
f 70 71 120
f 70 120 119
f 70 120 71
f 70 119 120
f 71 72 121
f 71 121 120
f 71 121 72
f 71 120 121
f 72 73 122
f 72 122 121
f 72 122 73
f 72 121 122
f 73 74 123
f 73 123 122
f 73 123 74
f 73 122 123
f 74 75 124
f 74 124 123
f 74 124 75
f 74 123 124
f 75 76 125
f 75 125 124
f 75 125 76
f 75 124 125
f 76 77 126
f 76 126 125
f 76 126 77
f 76 125 126
f 77 78 127
f 77 127 126
f 77 127 78
f 77 126 127
f 78 79 128
f 78 128 127
f 78 128 79
f 78 127 128
f 79 80 129
f 79 129 128
f 79 129 80
f 79 128 129
f 80 81 130
f 80 130 129
f 80 130 81
f 80 129 130
f 81 82 131
f 81 131 130
f 81 131 82
f 81 130 131
f 82 83 132
f 82 132 131
f 82 132 83
f 82 131 132
f 83 84 133
f 83 133 132
f 83 133 84
f 83 132 133
f 84 85 134
f 84 134 133
f 84 134 85
f 84 133 134
f 85 86 135
f 85 135 134
f 85 135 86
f 85 134 135
f 86 87 136
f 86 136 135
f 86 136 87
f 86 135 136
f 87 88 137
f 87 137 136
f 87 137 88
f 87 136 137
f 88 89 138
f 88 138 137
f 88 138 89
f 88 137 138
f 89 90 139
f 89 139 138
f 89 139 90
f 89 138 139
f 90 91 140
f 90 140 139
f 90 140 91
f 90 139 140
f 91 92 141
f 91 141 140
f 91 141 92
f 91 140 141
f 92 93 142
f 92 142 141
f 92 142 93
f 92 141 142
f 93 94 143
f 93 143 142
f 93 143 94
f 93 142 143
f 94 95 144
f 94 144 143
f 94 144 95
f 94 143 144
f 95 96 145
f 95 145 144
f 95 145 96
f 95 144 145
f 96 97 146
f 96 146 145
f 96 146 97
f 96 145 146
f 97 98 147
f 97 147 146
f 97 147 98
f 97 146 147
f 99 100 149
f 99 149 148
f 99 149 100
f 99 148 149
f 100 101 150
f 100 150 149
f 100 150 101
f 100 149 150
f 101 102 151
f 101 151 150
f 101 151 102
f 101 150 151
f 102 103 152
f 102 152 151
f 102 152 103
f 102 151 152
f 103 104 153
f 103 153 152
f 103 153 104
f 103 152 153
f 104 105 154
f 104 154 153
f 104 154 105
f 104 153 154
f 105 106 155
f 105 155 154
f 105 155 106
f 105 154 155
f 106 107 156
f 106 156 155
f 106 156 107
f 106 155 156
f 107 108 157
f 107 157 156
f 107 157 108
f 107 156 157
f 108 109 158
f 108 158 157
f 108 158 109
f 108 157 158
f 109 110 159
f 109 159 158
f 109 159 110
f 109 158 159
f 110 111 160
f 110 160 159
f 110 160 111
f 110 159 160
f 111 112 161
f 111 161 160
f 111 161 112
f 111 160 161
f 112 113 162
f 112 162 161
f 112 162 113
f 112 161 162
f 113 114 163
f 113 163 162
f 113 163 114
f 113 162 163
f 114 115 164
f 114 164 163
f 114 164 115
f 114 163 164
f 115 116 165
f 115 165 164
f 115 165 116
f 115 164 165
f 116 117 166
f 116 166 165
f 116 166 117
f 116 165 166
f 117 118 167
f 117 167 166
f 117 167 118
f 117 166 167
f 118 119 168
f 118 168 167
f 118 168 119
f 118 167 168
f 119 120 169
f 119 169 168
f 119 169 120
f 119 168 169
f 120 121 170
f 120 170 169
f 120 170 121
f 120 169 170
f 121 122 171
f 121 171 170
f 121 171 122
f 121 170 171
f 122 123 172
f 122 172 171
f 122 172 123
f 122 171 172
f 123 124 173
f 123 173 172
f 123 173 124
f 123 172 173
f 124 125 174
f 124 174 173
f 124 174 125
f 124 173 174
f 125 126 175
f 125 175 174
f 125 175 126
f 125 174 175
f 126 127 176
f 126 176 175
f 126 176 127
f 126 175 176
f 127 128 177
f 127 177 176
f 127 177 128
f 127 176 177
f 128 129 178
f 128 178 177
f 128 178 129
f 128 177 178
f 129 130 179
f 129 179 178
f 129 179 130
f 129 178 179
f 130 131 180
f 130 180 179
f 130 180 131
f 130 179 180
f 131 132 181
f 131 181 180
f 131 181 132
f 131 180 181
f 132 133 182
f 132 182 181
f 132 182 133
f 132 181 182
f 133 134 183
f 133 183 182
f 133 183 134
f 133 182 183
f 134 135 184
f 134 184 183
f 134 184 135
f 134 183 184
f 135 136 185
f 135 185 184
f 135 185 136
f 135 184 185
f 136 137 186
f 136 186 185
f 136 186 137
f 136 185 186
f 137 138 187
f 137 187 186
f 137 187 138
f 137 186 187
f 138 139 188
f 138 188 187
f 138 188 139
f 138 187 188
f 139 140 189
f 139 189 188
f 139 189 140
f 139 188 189
f 140 141 190
f 140 190 189
f 140 190 141
f 140 189 190
f 141 142 191
f 141 191 190
f 141 191 142
f 141 190 191
f 142 143 192
f 142 192 191
f 142 192 143
f 142 191 192
f 143 144 193
f 143 193 192
f 143 193 144
f 143 192 193
f 144 145 194
f 144 194 193
f 144 194 145
f 144 193 194
f 145 146 195
f 145 195 194
f 145 195 146
f 145 194 195
f 146 147 196
f 146 196 195
f 146 196 147
f 146 195 196
f 148 149 198
f 148 198 197
f 148 198 149
f 148 197 198
f 149 150 199
f 149 199 198
f 149 199 150
f 149 198 199
f 150 151 200
f 150 200 199
f 150 200 151
f 150 199 200
f 151 152 201
f 151 201 200
f 151 201 152
f 151 200 201
f 152 153 202
f 152 202 201
f 152 202 153
f 152 201 202
f 153 154 203
f 153 203 202
f 153 203 154
f 153 202 203
f 154 155 204
f 154 204 203
f 154 204 155
f 154 203 204
f 155 156 205
f 155 205 204
f 155 205 156
f 155 204 205
f 156 157 206
f 156 206 205
f 156 206 157
f 156 205 206
f 157 158 207
f 157 207 206
f 157 207 158
f 157 206 207
f 158 159 208
f 158 208 207
f 158 208 159
f 158 207 208
f 159 160 209
f 159 209 208
f 159 209 160
f 159 208 209
f 160 161 210
f 160 210 209
f 160 210 161
f 160 209 210
f 161 162 211
f 161 211 210
f 161 211 162
f 161 210 211
f 162 163 212
f 162 212 211
f 162 212 163
f 162 211 212
f 163 164 213
f 163 213 212
f 163 213 164
f 163 212 213
f 164 165 214
f 164 214 213
f 164 214 165
f 164 213 214
f 165 166 215
f 165 215 214
f 165 215 166
f 165 214 215
f 166 167 216
f 166 216 215
f 166 216 167
f 166 215 216
f 167 168 217
f 167 217 216
f 167 217 168
f 167 216 217
f 168 169 218
f 168 218 217
f 168 218 169
f 168 217 218
f 169 170 219
f 169 219 218
f 169 219 170
f 169 218 219
f 170 171 220
f 170 220 219
f 170 220 171
f 170 219 220
f 171 172 221
f 171 221 220
f 171 221 172
f 171 220 221
f 172 173 222
f 172 222 221
f 172 222 173
f 172 221 222
f 173 174 223
f 173 223 222
f 173 223 174
f 173 222 223
f 174 175 224
f 174 224 223
f 174 224 175
f 174 223 224
f 175 176 225
f 175 225 224
f 175 225 176
f 175 224 225
f 176 177 226
f 176 226 225
f 176 226 177
f 176 225 226
f 177 178 227
f 177 227 226
f 177 227 178
f 177 226 227
f 178 179 228
f 178 228 227
f 178 228 179
f 178 227 228
f 179 180 229
f 179 229 228
f 179 229 180
f 179 228 229
f 180 181 230
f 180 230 229
f 180 230 181
f 180 229 230
f 181 182 231
f 181 231 230
f 181 231 182
f 181 230 231
f 182 183 232
f 182 232 231
f 182 232 183
f 182 231 232
f 183 184 233
f 183 233 232
f 183 233 184
f 183 232 233
f 184 185 234
f 184 234 233
f 184 234 185
f 184 233 234
f 185 186 235
f 185 235 234
f 185 235 186
f 185 234 235
f 186 187 236
f 186 236 235
f 186 236 187
f 186 235 236
f 187 188 237
f 187 237 236
f 187 237 188
f 187 236 237
f 188 189 238
f 188 238 237
f 188 238 189
f 188 237 238
f 189 190 239
f 189 239 238
f 189 239 190
f 189 238 239
f 190 191 240
f 190 240 239
f 190 240 191
f 190 239 240
f 191 192 241
f 191 241 240
f 191 241 192
f 191 240 241
f 192 193 242
f 192 242 241
f 192 242 193
f 192 241 242
f 193 194 243
f 193 243 242
f 193 243 194
f 193 242 243
f 194 195 244
f 194 244 243
f 194 244 195
f 194 243 244
f 195 196 245
f 195 245 244
f 195 245 196
f 195 244 245
f 1 50 99
f 1 99 148
f 1 148 197
f 1 99 50
f 1 148 99
f 1 197 148
f 49 147 98
f 49 196 147
f 49 245 196
f 49 98 147
f 49 147 196
f 49 196 245
